<svg width="122" height="87" viewBox="0 0 122 87" fill="none" xmlns="http://www.w3.org/2000/svg">
<path d="M32.4099 48.8357H15.267C12.2359 48.8357 9.32902 47.6317 7.18574 45.4884C5.04246 43.3451 3.83838 40.4382 3.83838 37.4071V14.5499C3.83838 11.5189 5.04246 8.61198 7.18574 6.4687C9.32902 4.32542 12.2359 3.12134 15.267 3.12134H106.696C109.727 3.12134 112.634 4.32542 114.777 6.4687C116.92 8.61198 118.124 11.5189 118.124 14.5499V37.4071C118.124 40.4382 116.92 43.3451 114.777 45.4884C112.634 47.6317 109.727 48.8357 106.696 48.8357H89.5529M26.6956 25.9785H95.2672" stroke="#FFD700" stroke-width="6.00002" stroke-linecap="round" stroke-linejoin="round"/>
<path d="M66.6952 25.9785L89.5524 48.8357V71.6929C89.5524 74.724 88.3484 77.6309 86.2051 79.7742C84.0618 81.9174 81.1549 83.1215 78.1238 83.1215H43.838C40.807 83.1215 37.9001 81.9174 35.7568 79.7742C33.6135 77.6309 32.4094 74.724 32.4094 71.6929V25.9785" stroke="#FFD700" stroke-width="6.00002" stroke-linecap="round" stroke-linejoin="round"/>
</svg>
