<svg width="115" height="115" viewBox="0 0 115 115" fill="none" xmlns="http://www.w3.org/2000/svg">
<path d="M103.572 0.495483H12.1439C9.11285 0.495483 6.20595 1.69956 4.06268 3.84283C1.91941 5.9861 0.715332 8.89301 0.715332 11.9241V114.781L23.5725 91.924H103.572C106.603 91.924 109.51 90.7199 111.654 88.5767C113.797 86.4334 115.001 83.5265 115.001 80.4955V11.9241C115.001 8.89301 113.797 5.9861 111.654 3.84283C109.51 1.69956 106.603 0.495483 103.572 0.495483ZM23.5725 40.4955H92.1439V51.924H23.5725M69.2867 69.0669H23.5725V57.6383H69.2867M92.1439 34.7812H23.5725V23.3526H92.1439" fill="#FF69B4"/>
</svg>
