<svg width="376" height="301" viewBox="0 0 376 301" fill="none" xmlns="http://www.w3.org/2000/svg">
<g clip-path="url(#clip0_17_1141)">
<path d="M189.636 50.8218L132.917 96.7593C123.484 104.376 121.667 118.087 128.816 127.873C136.375 138.302 151.082 140.353 161.218 132.443L219.402 87.2085C223.503 84.0444 229.363 84.7476 232.585 88.8491C235.808 92.9507 235.046 98.8101 230.945 102.033L218.699 111.525L300.144 186.525V75.8999H299.734L297.449 74.4351L254.91 47.189C245.945 41.4468 235.457 38.3999 224.792 38.3999C212.019 38.3999 199.597 42.7944 189.636 50.8218ZM202.996 123.712L172.703 147.267C154.246 161.681 127.468 157.931 113.64 138.947C100.632 121.076 103.914 96.1147 121.082 82.228L169.832 42.7944C163.035 39.9233 155.71 38.4585 148.269 38.4585C137.253 38.3999 126.531 41.6812 117.332 47.7749L75.144 75.8999V207.15H91.6675L145.222 256.017C156.707 266.505 174.46 265.685 184.949 254.201C188.171 250.626 190.339 246.466 191.453 242.13L201.414 251.271C212.839 261.759 230.652 260.998 241.14 249.572C243.777 246.701 245.71 243.361 246.941 239.904C258.308 247.521 273.777 245.939 283.328 235.509C293.816 224.083 293.054 206.271 281.628 195.783L202.996 123.712ZM9.51904 75.8999C4.36279 75.8999 0.144043 80.1187 0.144043 85.2749V207.15C0.144043 217.521 8.52295 225.9 18.894 225.9H37.644C48.0151 225.9 56.394 217.521 56.394 207.15V75.8999H9.51904ZM28.269 188.4C30.7554 188.4 33.14 189.388 34.8982 191.146C36.6563 192.904 37.644 195.288 37.644 197.775C37.644 200.261 36.6563 202.646 34.8982 204.404C33.14 206.162 30.7554 207.15 28.269 207.15C25.7826 207.15 23.3981 206.162 21.6399 204.404C19.8818 202.646 18.894 200.261 18.894 197.775C18.894 195.288 19.8818 192.904 21.6399 191.146C23.3981 189.388 25.7826 188.4 28.269 188.4ZM318.894 75.8999V207.15C318.894 217.521 327.273 225.9 337.644 225.9H356.394C366.765 225.9 375.144 217.521 375.144 207.15V85.2749C375.144 80.1187 370.925 75.8999 365.769 75.8999H318.894ZM337.644 197.775C337.644 195.288 338.632 192.904 340.39 191.146C342.148 189.388 344.533 188.4 347.019 188.4C349.505 188.4 351.89 189.388 353.648 191.146C355.406 192.904 356.394 195.288 356.394 197.775C356.394 200.261 355.406 202.646 353.648 204.404C351.89 206.162 349.505 207.15 347.019 207.15C344.533 207.15 342.148 206.162 340.39 204.404C338.632 202.646 337.644 200.261 337.644 197.775Z" fill="#FFD700"/>
</g>
<defs>
<clipPath id="clip0_17_1141">
<rect width="375" height="300" fill="white" transform="translate(0.144043 0.899902)"/>
</clipPath>
</defs>
</svg>
