<svg width="117" height="103" viewBox="0 0 117 103" fill="none" xmlns="http://www.w3.org/2000/svg">
<path d="M10.953 6.10259V91.7097H111.132C112.581 91.7097 113.971 92.2854 114.995 93.3102C116.02 94.3349 116.596 95.7248 116.596 97.174C116.596 98.6232 116.02 100.013 114.995 101.038C113.971 102.063 112.581 102.638 111.132 102.638H5.4887C4.03948 102.638 2.64962 102.063 1.62487 101.038C0.600114 100.013 0.0244141 98.6232 0.0244141 97.174L0.0244141 6.10259C0.0244141 4.65337 0.600114 3.26351 1.62487 2.23876C2.64962 1.21401 4.03948 0.638306 5.4887 0.638306C6.93792 0.638306 8.32778 1.21401 9.35253 2.23876C10.3773 3.26351 10.953 4.65337 10.953 6.10259ZM114.993 24.5354L76.743 62.7854C75.7184 63.8087 74.3296 64.3835 72.8816 64.3835C71.4335 64.3835 70.0447 63.8087 69.0201 62.7854L51.0244 44.7897L31.2073 64.6069C30.1716 65.5733 28.8012 66.0997 27.3849 66.0753C25.9686 66.0508 24.6172 65.4773 23.6156 64.4757C22.614 63.4741 22.0405 62.1227 22.016 60.7064C21.9916 59.2901 22.518 57.9197 23.4844 56.884L47.163 33.2054C48.1875 32.1822 49.5764 31.6074 51.0244 31.6074C52.4725 31.6074 53.8613 32.1822 54.8858 33.2054L72.8816 51.2012L107.27 16.8126C108.306 15.8462 109.676 15.3197 111.092 15.3442C112.509 15.3687 113.86 15.9421 114.862 16.9437C115.863 17.9454 116.437 19.2968 116.461 20.7131C116.486 22.1294 115.959 23.4998 114.993 24.5354Z" fill="#4CAF50"/>
</svg>
