<svg width="127" height="104" viewBox="0 0 127 104" fill="none" xmlns="http://www.w3.org/2000/svg">
<path d="M114.804 80.2097H11.9471V11.6383H114.804M114.804 0.209717H11.9471C8.91608 0.209717 6.00918 1.41379 3.8659 3.55707C1.72263 5.70034 0.518555 8.60724 0.518555 11.6383V80.2097C0.518555 83.2407 1.72263 86.1476 3.8659 88.2909C6.00918 90.4342 8.91608 91.6383 11.9471 91.6383H40.5185V103.067H86.2328V91.6383H114.804C117.835 91.6383 120.742 90.4342 122.885 88.2909C125.029 86.1476 126.233 83.2407 126.233 80.2097V11.6383C126.233 8.60724 125.029 5.70034 122.885 3.55707C120.742 1.41379 117.835 0.209717 114.804 0.209717Z" fill="#FFD700"/>
</svg>
