<svg width="35" height="50" viewBox="0 0 35 50" fill="none" xmlns="http://www.w3.org/2000/svg">
<path d="M33.3546 48.6161C33.3546 48.4123 33.2736 48.2169 33.1295 48.0728C32.9855 47.9287 32.79 47.8477 32.5862 47.8477H4.9255C4.72172 47.8477 4.52629 47.9287 4.3822 48.0728C4.2381 48.2169 4.15715 48.4123 4.15715 48.6161C4.15715 48.8198 4.2381 49.0153 4.3822 49.1594C4.52629 49.3035 4.72172 49.3844 4.9255 49.3844H32.5862C32.79 49.3844 32.9855 49.3035 33.1295 49.1594C33.2736 49.0153 33.3546 48.8198 33.3546 48.6161ZM1.50479 14.5841C0.862449 15.0114 -0.111823 16.3114 0.811738 18.1585C1.57855 19.6906 3.17827 21.5654 4.8794 22.0602C5.28828 22.1884 5.71979 22.2278 6.14512 22.1758C6.57044 22.1239 6.97979 21.9818 7.34582 21.759C9.03466 20.7479 11.0293 19.3802 11.8745 18.7932C12.941 19.3326 14.2871 19.4448 15.6548 19.0928L15.6732 19.0867C15.5933 21.6238 14.7343 23.2081 10.5345 27.1083C6.79107 30.5828 4.57052 35.1468 4.59204 39.319C4.6074 42.0559 5.60473 44.4055 7.48105 46.1097C7.62252 46.2391 7.80723 46.3109 7.99892 46.311H29.5128C29.7166 46.311 29.912 46.2301 30.0561 46.086C30.2002 45.9419 30.2812 45.7464 30.2812 45.5427C30.2812 45.3389 30.2002 45.1434 30.0561 44.9993C29.912 44.8553 29.7166 44.7743 29.5128 44.7743H8.30472C6.89249 43.3836 6.14258 41.5011 6.13028 39.3113C6.1103 35.6201 8.20023 31.3742 11.581 28.2347C16.0605 24.0764 17.2192 22.1063 17.2192 18.6503C17.2192 18.5873 17.1976 18.5319 17.1838 18.4736C18.0244 18.0202 18.7513 17.4209 19.2476 16.6956C19.87 15.7889 21.21 13.4608 20.2157 11.4001C20.1717 11.3093 20.1103 11.228 20.0349 11.161C19.9595 11.0939 19.8716 11.0423 19.7763 11.0092C19.681 10.9761 19.5801 10.9621 19.4794 10.968C19.3786 10.9739 19.28 10.9996 19.1892 11.0436C19.0984 11.0876 19.0172 11.149 18.9501 11.2244C18.883 11.2998 18.8315 11.3877 18.7984 11.483C18.7653 11.5783 18.7513 11.6792 18.7571 11.78C18.763 11.8807 18.7887 11.9793 18.8327 12.0701C19.2799 12.9967 18.9618 14.4013 17.9814 15.8273C17.4159 16.651 16.4047 17.3164 15.2752 17.6053C14.1273 17.8988 13.0362 17.7697 12.2756 17.2488C12.1462 17.1601 11.9927 17.1132 11.8359 17.1143C11.679 17.1154 11.5263 17.1645 11.3981 17.2549C11.3705 17.2734 8.66739 19.1774 6.55902 20.4421C6.37408 20.5555 6.1666 20.6272 5.95108 20.6522C5.73556 20.6771 5.51719 20.6547 5.31122 20.5865C4.1218 20.2392 2.81407 18.724 2.18863 17.4732C1.68305 16.462 2.20092 15.9795 2.43604 15.8074C7.73307 11.2326 10.3916 6.47955 10.5007 6.27825C10.5517 6.18538 10.5829 6.08297 10.5924 5.97746C10.602 5.87194 10.5895 5.76559 10.556 5.6651C10.2248 4.639 9.94779 3.59618 9.72618 2.54097C11.3336 3.5091 14.0981 4.8614 16.9764 4.8614C20.9779 4.8614 30.2812 6.35508 30.2812 20.1916C30.2812 20.2669 30.2673 27.7891 27.2539 36.0612C27.2182 36.1563 27.2017 36.2576 27.2054 36.3591C27.2091 36.4606 27.2329 36.5604 27.2755 36.6527C27.318 36.745 27.3784 36.8279 27.4532 36.8967C27.528 36.9655 27.6157 37.0187 27.7112 37.0534C27.8067 37.088 27.9082 37.1034 28.0097 37.0985C28.1112 37.0937 28.2107 37.0688 28.3025 37.0253C28.3943 36.9818 28.4766 36.9204 28.5445 36.8449C28.6125 36.7693 28.6648 36.6811 28.6984 36.5852C31.804 28.0595 31.8194 20.502 31.8179 20.187C31.8179 4.53869 20.457 3.32316 16.9764 3.32316C13.1208 3.32316 9.27439 0.398804 9.2375 0.36807C9.12262 0.282132 8.98635 0.229378 8.84355 0.215559C8.70075 0.201739 8.55689 0.227384 8.42766 0.289698C8.2991 0.353045 8.19082 0.451087 8.11506 0.572744C8.03929 0.694401 7.99906 0.834823 7.99892 0.978143C7.99892 2.48565 8.71349 4.92441 8.99163 5.81416C8.34929 6.88678 5.81679 10.8561 1.50479 14.5841Z" fill="#FFD700"/>
<path d="M26.4167 2.57625C23.9565 0.918139 21.2057 0.209717 17.2195 0.209717C17.0157 0.209717 16.8203 0.290668 16.6762 0.434762C16.5321 0.578857 16.4512 0.77429 16.4512 0.97807C16.4512 1.18185 16.5321 1.37728 16.6762 1.52138C16.8203 1.66547 17.0157 1.74642 17.2195 1.74642C20.8769 1.74642 23.371 2.37494 25.5592 3.85018C29.1152 6.25051 33.355 11.0327 33.355 20.1869C33.355 22.4167 33.355 25.4701 31.8413 31.5263C31.7972 31.7221 31.8315 31.9273 31.9369 32.0982C32.0422 32.269 32.2102 32.3919 32.4049 32.4405C32.5996 32.489 32.8057 32.4595 32.9789 32.3582C33.1521 32.2568 33.2788 32.0917 33.3319 31.8982C34.8917 25.6607 34.8917 22.4966 34.8917 20.1869C34.8917 10.3581 30.2831 5.18404 26.4167 2.57625Z" fill="#FFD700"/>
</svg>
