<svg width="117" height="106" viewBox="0 0 117 106" fill="none" xmlns="http://www.w3.org/2000/svg">
<path d="M21.8712 46.2925C37.7581 18.1175 45.7015 4.03271 58.2836 4.03271C70.8657 4.03271 78.8092 18.1175 94.6961 46.2925L96.6779 49.7987C109.881 73.2098 116.485 84.9154 110.518 93.474C104.551 102.033 89.7852 102.033 60.2654 102.033H56.3019C26.7821 102.033 12.0168 102.033 6.04964 93.474C0.0825337 84.9154 6.68664 73.2098 19.8894 49.7987L21.8712 46.2925Z" stroke="#FFD700" stroke-width="7.35"/>
<path d="M58.2825 31.2546V58.4769" stroke="#FFD700" stroke-width="7.35" stroke-linecap="round"/>
<path d="M58.2826 80.2546C61.2895 80.2546 63.727 77.8171 63.727 74.8102C63.727 71.8033 61.2895 69.3657 58.2826 69.3657C55.2757 69.3657 52.8381 71.8033 52.8381 74.8102C52.8381 77.8171 55.2757 80.2546 58.2826 80.2546Z" fill="#FFD700"/>
</svg>
