<svg width="104" height="121" viewBox="0 0 104 121" fill="none" xmlns="http://www.w3.org/2000/svg">
<path d="M68.8756 0.638306H34.5899V12.0669H68.8756V0.638306ZM46.0185 74.924H57.447V40.6383H46.0185V74.924ZM91.9042 37.1526L100.018 29.0383C97.5613 26.124 94.8756 23.3812 91.9613 20.9812L83.847 29.0954C74.7465 21.7708 63.4148 17.7785 51.7328 17.7812C23.3328 17.7812 0.304199 40.8097 0.304199 69.2097C0.304199 97.6097 23.2756 120.638 51.7328 120.638C61.4145 120.644 70.9009 117.914 79.0992 112.764C87.2975 107.614 93.8744 100.253 98.0724 91.5282C102.27 82.8039 103.919 73.0712 102.827 63.4512C101.736 53.8311 97.9496 44.7149 91.9042 37.1526ZM51.7328 109.21C29.6185 109.21 11.7328 91.324 11.7328 69.2097C11.7328 47.0954 29.6185 29.2097 51.7328 29.2097C73.847 29.2097 91.7327 47.0954 91.7327 69.2097C91.7327 91.324 73.847 109.21 51.7328 109.21Z" fill="#9C27B0"/>
</svg>
