<svg width="53" height="53" viewBox="0 0 53 53" fill="none" xmlns="http://www.w3.org/2000/svg">
<path d="M23.4854 20.0793C22.4206 20.5879 21.4933 21.3445 20.7814 22.2857C20.0695 23.2268 19.5939 24.325 19.3943 25.4881C19.1948 26.6511 19.2772 27.8451 19.6346 28.9697C19.9921 30.0943 20.6141 31.1167 21.4485 31.9511C22.2829 32.7856 23.3054 33.4076 24.43 33.7651C25.5546 34.1225 26.7486 34.2049 27.9116 34.0054C29.0747 33.8058 30.1729 33.3301 31.114 32.6183C32.0551 31.9064 32.8118 30.9791 33.3203 29.9143" stroke="#FFD700" stroke-width="2.45873" stroke-linecap="round" stroke-linejoin="round"/>
<path d="M31.9236 11.6422C30.2763 11.0706 28.506 10.7571 26.6619 10.7571C17.8351 10.7571 10.6802 17.912 10.6802 26.7388C10.6802 35.5657 17.8351 42.7206 26.6619 42.7206C35.4888 42.7206 42.6437 35.5657 42.6437 26.7388C42.6437 24.8948 42.3314 23.1245 41.7585 21.4771" stroke="#FFD700" stroke-width="2.45873" stroke-linecap="round" stroke-linejoin="round"/>
<path d="M38.4246 5.14269C34.8172 3.17349 30.7719 2.14482 26.662 2.15165C13.0824 2.15165 2.07471 13.1594 2.07471 26.7389C2.07471 40.3185 13.0824 51.3262 26.662 51.3262C40.2416 51.3262 51.2493 40.3185 51.2493 26.7389C51.2563 22.6296 50.2281 18.5847 48.2595 14.9776M51.2493 2.15165L26.662 26.7389" stroke="#FFD700" stroke-width="2.45873" stroke-linecap="round" stroke-linejoin="round"/>
</svg>
