<svg width="57" height="50" viewBox="0 0 57 50" fill="none" xmlns="http://www.w3.org/2000/svg">
<path d="M5.83072 2.79475V44.0663H54.1272C54.8259 44.0663 55.496 44.3439 55.99 44.8379C56.484 45.3319 56.7616 46.002 56.7616 46.7007C56.7616 47.3993 56.484 48.0694 55.99 48.5634C55.496 49.0575 54.8259 49.335 54.1272 49.335H3.19637C2.49769 49.335 1.82763 49.0575 1.3336 48.5634C0.839559 48.0694 0.562012 47.3993 0.562012 46.7007L0.562012 2.79475C0.562012 2.09608 0.839559 1.42602 1.3336 0.931985C1.82763 0.437948 2.49769 0.1604 3.19637 0.1604C3.89504 0.1604 4.5651 0.437948 5.05914 0.931985C5.55317 1.42602 5.83072 2.09608 5.83072 2.79475ZM55.9888 11.6813L37.5484 30.1218C37.0544 30.6151 36.3848 30.8922 35.6867 30.8922C34.9886 30.8922 34.3191 30.6151 33.8251 30.1218L25.1493 21.446L15.5954 30.9999C15.0961 31.4658 14.4354 31.7196 13.7526 31.7078C13.0698 31.696 12.4183 31.4196 11.9354 30.9367C11.4525 30.4538 11.176 29.8023 11.1643 29.1195C11.1525 28.4367 11.4063 27.776 11.8722 27.2767L23.2877 15.8612C23.7817 15.3678 24.4512 15.0907 25.1493 15.0907C25.8474 15.0907 26.517 15.3678 27.0109 15.8612L35.6867 24.537L52.2656 7.95809C52.7649 7.49219 53.4256 7.23837 54.1084 7.25017C54.7912 7.26196 55.4427 7.53844 55.9256 8.02131C56.4085 8.50421 56.685 9.15574 56.6968 9.83854C56.7085 10.5213 56.4547 11.182 55.9888 11.6813Z" fill="#FFD700"/>
</svg>
